<svg width="60" height="60" viewBox="0 0 60 60" fill="none" xmlns="http://www.w3.org/2000/svg">
<g filter="url(#filter0_d_22_1103)">
<path d="M2 17C2 8.16344 9.16344 1 18 1H42C50.8366 1 58 8.16344 58 17V41C58 49.8366 50.8366 57 42 57H18C9.16344 57 2 49.8366 2 41V17Z" fill="#FFE1E1"/>
<path d="M44.1696 19.5115C43.5783 19.7889 43.3088 20.1692 43.3525 20.6317C43.4045 21.0328 43.6654 21.382 44.1173 21.6802C44.5606 21.9578 44.9433 22.0094 45.2648 21.8345C45.6387 21.6288 45.778 21.1458 45.6734 20.3851C45.5171 19.3983 45.0214 19.1104 44.1696 19.5115ZM46.1081 23.8799C45.3258 24.538 44.2997 24.7127 43.0218 24.394C42.7003 24.3118 41.7093 23.9109 40.0487 23.1914C39.6401 23.6129 39.4229 24.2605 39.4054 25.1444C39.4054 25.309 39.4229 25.679 39.4574 26.2545C39.4749 26.7377 39.4749 27.1077 39.4574 27.3751C39.0663 31.8671 36.9971 35.5472 33.2416 38.3946C34.8761 35.5266 35.6149 33.0185 35.4584 30.8701C35.3455 29.2563 34.7976 27.8068 33.8328 26.5012C32.4417 24.651 31.3984 24.2502 30.7204 25.2986C31.0161 25.9361 31.607 26.7172 32.5026 27.6422C33.2329 28.4031 33.6763 29.2458 33.8328 30.1709C34.2587 32.8848 33.7111 35.1667 32.1983 37.0068C32.0679 37.1713 31.8593 37.3562 31.5898 37.5825C31.2158 37.8601 30.9986 38.0452 30.929 38.1272C30.4509 38.5487 30.2858 39.0523 30.4162 39.6281C30.5031 39.9467 30.929 40.255 31.6941 40.5326C32.8328 40.9748 33.4938 41.2523 33.6763 41.3756C36.432 42.9792 37.8665 45.2508 37.9796 48.1805C36.606 47.8825 35.1454 46.7208 33.5981 44.6855C32.0417 42.6194 30.5377 41.3961 29.0947 41.0158C29.1468 41.0364 28.6078 40.9952 27.4862 40.8924C26.8256 40.8514 26.2779 40.6047 25.8346 40.1421C25.852 39.6795 26.1997 39.0523 26.8778 38.2404C27.4862 37.5003 27.7384 36.6778 27.6167 35.7733C27.4777 34.735 26.643 34.0464 25.0956 33.7278C22.8699 33.2652 21.5487 32.8951 21.1225 32.6176C20.7313 32.3709 20.3836 31.9803 20.0793 31.4353C19.7751 30.9009 19.4708 30.5309 19.1839 30.356C18.2189 30.8802 17.2713 31.0859 16.3585 30.9832C15.2892 30.8907 14.7066 30.3252 14.6023 29.2973C14.5154 28.4339 14.7501 27.7862 15.3153 27.3443C15.8195 26.9434 16.4801 26.8405 17.2713 27.0461C17.4278 27.0769 17.7581 27.4059 18.271 28.0022C18.7405 28.588 19.097 28.8449 19.3404 28.7832C19.5577 28.732 19.8707 27.817 20.2793 26.049C20.7401 24.0239 21.166 22.7186 21.5572 22.1327C23.27 19.5216 25.7302 18.4217 28.9382 18.8225C29.2773 18.8639 30.677 19.3572 33.1459 20.3233C34.7891 20.9503 36.0584 20.9093 36.9364 20.2103C37.2928 19.9225 37.597 19.4496 37.8579 18.7917C38.2144 17.8463 38.4491 17.2705 38.5707 17.0751C38.6228 16.9724 38.9011 16.6742 39.4054 16.1704C39.7271 15.8725 39.84 15.5228 39.7358 15.1427C42.0483 15.2249 43.7958 15.9547 44.9867 17.3425C46.3256 18.915 46.6994 21.0842 46.1081 23.8799ZM33.3982 11.4728C33.4326 11.4728 31.9983 11.5345 29.0947 11.6477C27.4429 11.7297 26.3215 11.3805 25.7041 10.5993C25.8431 9.79735 26.4083 9.26265 27.408 9.00584C27.9385 8.88238 28.747 8.83096 29.8335 8.85159C31.7375 8.8723 33.5981 9.44779 35.4324 10.5684C37.0668 11.5961 38.3534 12.8298 39.3097 14.2689C37.0668 12.5625 35.0933 11.6373 33.3982 11.4728ZM40.7876 13.7342C39.8314 12.0486 38.5621 10.6196 36.9625 9.45805C35.1801 8.11149 33.2502 7.33025 31.1812 7.10405C29.6337 6.92946 28.2514 6.97051 27.0342 7.25812C25.5737 7.61813 24.6784 8.25548 24.3565 9.18071C23.896 10.5888 24.1307 11.6786 25.0435 12.4697C25.7563 13.1074 26.7561 13.4671 28.0514 13.5493C28.6948 13.6109 29.6249 13.6109 30.8508 13.5493C32.1897 13.4671 33.1286 13.4363 33.6501 13.4567C35.7714 13.5391 37.1712 14.2175 37.8317 15.4819C37.5884 15.6154 37.2841 16.222 36.9103 17.2806C36.5538 18.2674 36.1191 18.8432 35.6149 18.9974C35.0497 19.1618 34.0937 18.9358 32.7374 18.3395C31.0333 17.5789 29.9292 17.1573 29.399 17.0751C26.5822 16.5509 24.2 17.1881 22.2701 18.9666C20.5836 20.5187 19.3664 22.7905 18.6014 25.8024C17.1756 24.8667 15.8195 24.8975 14.524 25.8949C13.22 26.9229 12.7505 28.3515 13.1245 30.1709C13.3417 31.2401 14.0373 31.9904 15.211 32.4326C16.3846 32.8745 17.5147 32.8231 18.6014 32.2784C19.1404 33.3472 20.2445 34.1595 21.9138 34.7248C24.8174 35.7014 26.2258 36.1742 26.1389 36.1331C26.0867 36.5341 25.7302 37.0993 25.0696 37.8188C24.4783 38.487 24.1915 39.1963 24.2262 39.9571C24.2611 41.2624 25.2608 42.1877 27.2343 42.7326C29.7467 43.4313 31.2071 43.9763 31.6159 44.3565C31.9027 44.6238 32.3636 45.3125 32.9893 46.4331C33.5981 47.5636 34.1283 48.3244 34.5716 48.7253C35.2671 49.3421 36.1018 49.7531 37.0668 49.928C38.1535 50.1337 38.9011 49.8971 39.3097 49.2393C39.7009 48.5918 39.7271 47.5636 39.3792 46.1349C39.0922 44.9733 38.7187 44.0277 38.2664 43.308C37.8926 42.7017 36.5104 41.4784 34.1369 39.6281C38.5707 36.5958 40.831 31.8671 40.9353 25.4425C42.3437 26.2852 43.7783 26.5425 45.2387 26.2033C46.8037 25.8125 47.6904 24.8773 47.8904 23.3663C48.2467 20.7141 47.734 18.4115 46.3604 16.4377C44.9345 14.3923 43.0741 13.4875 40.7876 13.7342Z" fill="#E63E3E"/>
</g>
<defs>
<filter id="filter0_d_22_1103" x="0" y="0" width="60" height="60" filterUnits="userSpaceOnUse" color-interpolation-filters="sRGB">
<feFlood flood-opacity="0" result="BackgroundImageFix"/>
<feColorMatrix in="SourceAlpha" type="matrix" values="0 0 0 0 0 0 0 0 0 0 0 0 0 0 0 0 0 0 127 0" result="hardAlpha"/>
<feOffset dy="1"/>
<feGaussianBlur stdDeviation="1"/>
<feColorMatrix type="matrix" values="0 0 0 0 0 0 0 0 0 0 0 0 0 0 0 0 0 0 0.05 0"/>
<feBlend mode="normal" in2="BackgroundImageFix" result="effect1_dropShadow_22_1103"/>
<feBlend mode="normal" in="SourceGraphic" in2="effect1_dropShadow_22_1103" result="shape"/>
</filter>
</defs>
</svg>
