<svg width="282" height="250" viewBox="0 0 282 250" fill="none" xmlns="http://www.w3.org/2000/svg">
<path d="M179.063 46.2635C176.85 47.2893 175.841 48.6954 176.005 50.4055C176.2 51.8889 177.176 53.1801 178.867 54.2825C180.527 55.309 181.959 55.4999 183.163 54.8532C184.562 54.0927 185.083 52.3064 184.692 49.4938C184.107 45.8449 182.252 44.7804 179.063 46.2635ZM186.319 62.4165C183.391 64.8498 179.55 65.4957 174.767 64.3174C173.564 64.0134 169.855 62.531 163.639 59.8706C162.11 61.4289 161.297 63.8236 161.231 67.0919C161.231 67.7006 161.297 69.0687 161.426 71.1967C161.492 72.9837 161.492 74.3519 161.426 75.3404C159.962 91.9503 152.218 105.558 138.161 116.087C144.279 105.482 147.044 96.2079 146.459 88.2637C146.036 82.2964 143.985 76.9367 140.374 72.109C135.167 65.2676 131.263 63.7856 128.725 67.6623C129.832 70.0194 132.044 72.9078 135.395 76.328C138.129 79.1416 139.788 82.2577 140.374 85.6786C141.968 95.7135 139.919 104.151 134.257 110.956C133.768 111.564 132.987 112.247 131.979 113.084C130.579 114.111 129.766 114.795 129.506 115.098C127.716 116.657 127.098 118.519 127.586 120.648C127.912 121.826 129.506 122.966 132.369 123.993C136.631 125.628 139.105 126.654 139.788 127.11C150.103 133.039 155.472 141.439 155.895 152.272C150.754 151.17 145.287 146.875 139.496 139.349C133.67 131.709 128.041 127.185 122.64 125.779C122.835 125.856 120.818 125.703 116.62 125.323C114.147 125.171 112.097 124.259 110.438 122.549C110.503 120.838 111.805 118.519 114.343 115.517C116.62 112.78 117.564 109.739 117.108 106.394C116.588 102.555 113.464 100.009 107.672 98.8307C99.3417 97.1202 94.3964 95.7518 92.8012 94.7256C91.337 93.8132 90.0359 92.3689 88.8968 90.3537C87.7584 88.3776 86.6193 87.0095 85.5454 86.3628C81.9336 88.3014 78.387 89.0619 74.9704 88.682C70.9681 88.34 68.7875 86.249 68.3972 82.4482C68.0721 79.2554 68.9505 76.8608 71.0657 75.2266C72.9529 73.7442 75.4255 73.3636 78.387 74.1241C78.9728 74.238 80.2088 75.4543 82.1288 77.6592C83.886 79.8255 85.2202 80.7754 86.1311 80.5473C86.9444 80.3579 88.1159 76.9746 89.6453 70.4369C91.3701 62.9489 92.9643 58.1223 94.4285 55.9557C100.839 46.3007 110.047 42.2339 122.054 43.7159C123.323 43.8688 128.562 45.6931 137.803 49.2651C143.953 51.5838 148.704 51.432 151.99 48.8472C153.324 47.7831 154.463 46.0347 155.439 43.602C156.774 40.106 157.653 37.977 158.108 37.2544C158.302 36.8745 159.344 35.7721 161.231 33.9091C162.436 32.8077 162.858 31.5145 162.468 30.1091C171.124 30.4131 177.664 33.1117 182.122 38.243C187.133 44.0579 188.532 52.0786 186.319 62.4165ZM138.747 16.5391C138.876 16.5391 133.508 16.7672 122.64 17.1858C116.458 17.4887 112.26 16.1975 109.95 13.3091C110.47 10.3437 112.585 8.36653 116.327 7.41694C118.313 6.96044 121.339 6.77031 125.405 6.84657C132.532 6.92317 139.496 9.05112 146.361 13.1949C152.479 16.9949 157.294 21.5566 160.873 26.878C152.479 20.5683 145.092 17.1471 138.747 16.5391ZM166.405 24.9008C162.826 18.6681 158.075 13.384 152.088 9.08907C145.417 4.10995 138.194 1.22115 130.45 0.384744C124.658 -0.260852 119.484 -0.109028 114.928 0.954428C109.462 2.28565 106.11 4.64236 104.906 8.06357C103.182 13.2701 104.06 17.3 107.477 20.2253C110.145 22.5831 113.887 23.9133 118.735 24.2173C121.144 24.445 124.625 24.445 129.213 24.2173C134.224 23.9133 137.739 23.7994 139.69 23.8746C147.63 24.1793 152.869 26.6879 155.342 31.3633C154.431 31.8571 153.292 34.1 151.893 38.0142C150.558 41.6632 148.931 43.7922 147.044 44.3625C144.929 44.9705 141.351 44.1348 136.274 41.9299C129.896 39.1174 125.764 37.5584 123.779 37.2544C113.236 35.3163 104.32 37.6723 97.0966 44.2487C90.7844 49.9876 86.2287 58.3883 83.3654 69.5253C78.0288 66.0654 72.9529 66.1793 68.1041 69.8672C63.2233 73.6683 61.4661 78.9507 62.8658 85.6786C63.6791 89.6319 66.2824 92.4065 70.6754 94.0413C75.068 95.6755 79.2979 95.4854 83.3654 93.4713C85.3826 97.4236 89.5153 100.427 95.7631 102.517C106.631 106.129 111.902 107.877 111.577 107.725C111.382 109.207 110.047 111.297 107.575 113.958C105.362 116.429 104.288 119.052 104.418 121.865C104.549 126.691 108.29 130.113 115.677 132.127C125.08 134.711 130.547 136.726 132.077 138.132C133.15 139.121 134.875 141.667 137.217 145.811C139.496 149.991 141.48 152.804 143.139 154.287C145.743 156.567 148.867 158.087 152.479 158.734C156.546 159.494 159.344 158.62 160.873 156.187C162.338 153.793 162.436 149.991 161.134 144.708C160.059 140.413 158.661 136.916 156.968 134.255C155.569 132.013 150.396 127.49 141.512 120.648C158.108 109.436 166.567 91.9503 166.958 68.1944C172.229 71.3106 177.599 72.2619 183.065 71.0076C188.922 69.5625 192.241 66.1044 192.99 60.5173C194.323 50.7102 192.404 42.1959 187.263 34.8977C181.926 27.3345 174.963 23.9885 166.405 24.9008Z" fill="#E63E3E"/>
<path d="M162.15 172.57C163.854 172.57 165.392 172.681 166.714 172.942C167.997 173.195 169.318 173.634 170.383 174.462C170.76 174.733 171.101 175.029 171.408 175.348C174.101 173.508 177.446 172.66 181.23 172.66C187.198 172.66 192.586 175.494 197.357 180.526C202.242 185.679 204.751 191.778 204.751 198.7C204.751 205.615 202.247 211.709 197.371 216.858C192.655 221.902 187.292 224.74 181.32 224.74C178.484 224.74 175.879 224.321 173.61 223.398V235.78C173.61 237.127 173.556 238.32 173.403 239.242C173.273 240.405 172.828 241.507 172.265 242.507C171.432 244.18 170.006 245.264 168.319 245.826C166.802 246.332 164.966 246.52 162.961 246.52C160.945 246.52 159.105 246.329 157.558 245.841L157.534 245.834L157.512 245.826C155.863 245.276 154.425 244.26 153.516 242.669L153.475 242.596L153.438 242.521C152.937 241.52 152.546 240.493 152.359 239.467L152.335 239.335L152.323 239.202C152.25 238.399 152.221 237.266 152.221 235.87V183.31C152.221 181.915 152.25 180.781 152.323 179.978L152.335 179.845L152.359 179.714C152.546 178.687 152.937 177.659 153.438 176.658L153.457 176.619C155.116 173.42 158.713 172.57 162.15 172.57ZM53.5195 154.03C55.3887 154.03 57.0935 154.187 58.5068 154.602C59.7094 154.956 60.8872 155.45 61.8418 156.192C62.899 157.014 63.607 158.106 64.0596 159.283L64.1035 159.397L64.1377 159.513C64.5635 160.961 64.71 162.875 64.71 165.04V214.99C64.71 216.363 64.6529 217.57 64.5049 218.522C64.3772 219.698 63.9269 220.842 63.3672 221.891L63.3662 221.89C62.4794 223.577 60.9389 224.576 59.3164 225.137C57.7067 225.695 55.7911 225.91 53.7002 225.91C49.3721 225.91 44.9069 224.796 43.4922 220.578L43.4912 220.579C42.9559 219.062 42.7803 217.083 42.7803 214.9V199.63H24.9297V214.99C24.9297 216.363 24.8726 217.57 24.7246 218.522C24.5982 219.687 24.1547 220.819 23.6025 221.86C22.7183 223.565 21.1683 224.572 19.5361 225.137C17.9264 225.695 16.0108 225.91 13.9199 225.91C9.59197 225.91 5.12765 224.796 3.71289 220.578L3.71094 220.579C3.17564 219.062 3.00001 217.083 3 214.9V164.95C3 163.555 3.0296 162.422 3.10254 161.619L3.1123 161.508L3.13086 161.397C3.32095 160.257 3.76574 159.131 4.34277 158.049H4.34375C5.23063 156.362 6.77132 155.364 8.39355 154.802C10.0032 154.245 11.9189 154.03 14.0098 154.03C18.2522 154.03 22.5562 155.095 24.1631 158.98L24.3105 159.366L24.3359 159.439L24.3584 159.513C24.7842 160.961 24.9297 162.875 24.9297 165.04V180.4H42.7803V164.95C42.7803 163.555 42.8089 162.422 42.8818 161.619L42.8926 161.508L42.9111 161.397C43.1012 160.257 43.546 159.131 44.123 158.049C45.0355 156.338 46.5469 155.262 48.2969 154.71C49.829 154.226 51.5997 154.03 53.5195 154.03ZM178.53 194.05C177.058 194.05 176.089 194.527 175.324 195.426C174.353 196.566 173.971 197.662 173.971 198.79C173.971 199.901 174.342 200.981 175.281 202.103C176.134 203.01 177.12 203.44 178.44 203.44C179.779 203.44 180.805 203.032 181.685 202.194L181.879 202L181.899 201.978C182.967 200.911 183.36 199.88 183.36 198.79C183.36 197.622 182.965 196.564 181.996 195.514L181.978 195.494L181.958 195.473C181.136 194.549 180.09 194.05 178.53 194.05Z" stroke="#E63E3E" stroke-width="6"/>
<path d="M219.864 155.452C221.183 155.452 222.444 155.634 223.39 156.225C224.338 156.721 225.014 157.521 225.253 158.597C225.488 159.409 225.588 160.345 225.588 161.368V219.641C225.588 220.636 225.482 221.557 225.237 222.375C224.926 223.413 224.24 224.192 223.299 224.684C222.352 225.278 221.089 225.46 219.768 225.46C218.407 225.46 217.14 225.266 216.16 224.694V224.695C216.151 224.69 216.142 224.684 216.133 224.679C216.127 224.675 216.121 224.673 216.116 224.67V224.669C215.217 224.155 214.597 223.367 214.3 222.375L214.294 222.357L214.289 222.339C214.055 221.481 213.948 220.544 213.948 219.544V161.272C213.948 160.277 214.054 159.355 214.3 158.537L214.318 158.473L214.344 158.411C214.721 157.467 215.363 156.712 216.256 156.217V156.218C217.235 155.646 218.503 155.452 219.864 155.452ZM259.108 175.804C262.11 175.804 264.908 176.35 267.48 177.463H267.479C270.035 178.504 272.224 180.066 274.03 182.138C275.908 184.155 277.319 186.573 278.277 189.365L278.465 189.897C279.369 192.578 279.808 195.555 279.808 198.808V219.641C279.808 220.608 279.707 221.506 279.475 222.307C279.237 223.392 278.554 224.197 277.596 224.694L277.597 224.695C276.681 225.205 275.469 225.364 274.18 225.364C272.819 225.364 271.552 225.17 270.572 224.599C269.649 224.086 269.014 223.288 268.712 222.279C268.466 221.461 268.36 220.539 268.36 219.544V198.712C268.36 196.188 267.939 194.071 267.149 192.321C266.373 190.602 265.229 189.302 263.706 188.378L263.689 188.368L263.674 188.358C262.185 187.401 260.216 186.868 257.669 186.868C255.271 186.868 253.233 187.392 251.51 188.393L251.496 188.401C249.835 189.342 248.534 190.662 247.578 192.392L247.415 192.721C246.626 194.387 246.209 196.371 246.209 198.712V219.641C246.209 220.636 246.103 221.557 245.857 222.375C245.544 223.42 244.851 224.202 243.9 224.694L243.901 224.695C242.984 225.205 241.773 225.364 240.484 225.364C239.17 225.364 237.942 225.165 236.972 224.599V224.599C236.964 224.595 236.955 224.589 236.946 224.584C236.94 224.58 236.934 224.577 236.928 224.574V224.573C236.029 224.06 235.41 223.272 235.112 222.279L235.092 222.212L235.078 222.142C234.925 221.377 234.856 220.505 234.856 219.544V181.432C234.856 180.495 234.963 179.619 235.221 178.846C235.543 177.882 236.195 177.15 237.068 176.665L237.096 176.649L237.126 176.635C238.072 176.162 239.274 175.996 240.581 175.996C241.589 175.996 242.554 176.121 243.349 176.488C244.088 176.75 244.812 177.206 245.236 177.987C245.586 178.534 245.813 179.135 245.905 179.78C245.973 180.258 246.01 180.72 246.014 181.162C246.973 180.208 248.059 179.368 249.267 178.639C250.666 177.729 252.171 177.03 253.776 176.541L253.784 176.539L253.793 176.536C255.475 176.045 257.25 175.804 259.108 175.804Z" fill="#E63E3E" stroke="#E63E3E" stroke-width="3"/>
<path d="M109.49 150.49C116.771 150.49 123.22 153.148 128.719 158.31H128.72C134.352 163.535 137.15 170.261 137.15 178.24C137.15 183.768 135.708 188.792 132.782 193.216L132.77 193.233C129.934 197.454 126.406 200.677 122.171 202.794L122.163 202.798L122.154 202.802C118.095 204.799 113.833 205.81 109.4 205.81C104.934 205.81 100.625 204.722 96.5045 202.595L96.4869 202.587L96.4703 202.578C92.286 200.351 88.7811 197.127 85.9518 192.981L85.9371 192.959L85.9215 192.936C83.0657 188.585 81.65 183.687 81.65 178.33C81.65 170.34 84.4857 163.588 90.1685 158.311C95.726 153.151 102.203 150.49 109.49 150.49ZM109.4 172.33C107.999 172.33 106.64 172.797 105.254 173.915C104.261 174.715 103.58 175.977 103.58 178.24C103.58 180.371 104.243 181.605 105.287 182.429C106.789 183.55 108.115 183.97 109.31 183.97C110.485 183.97 111.845 183.536 113.438 182.329C114.527 181.504 115.22 180.255 115.22 178.06C115.22 175.793 114.538 174.594 113.593 173.862C112.209 172.791 110.835 172.33 109.4 172.33Z" stroke="#E63E3E" stroke-width="6"/>
<path d="M125.845 216.076C109.123 225.29 86.4296 218.721 77.2151 202" stroke="#E63E3E" stroke-width="6" stroke-linecap="round" stroke-linejoin="round"/>
<path d="M115.456 231.363C102.92 238.084 85.6218 233.248 78.3886 221" stroke="#E63E3E" stroke-width="6" stroke-linecap="round" stroke-linejoin="round"/>
</svg>
